<svg width="611" height="376" viewBox="0 0 611 376" fill="none" xmlns="http://www.w3.org/2000/svg">
<path d="M37.9008 176C24.8341 176 15.2674 172.267 9.20078 164.8C3.13412 157.4 0.100782 145.867 0.100782 130.2V53.2C0.100782 36.8 3.13412 24.7333 9.20078 17C15.2674 9.26666 24.8341 5.39999 37.9008 5.39999C39.8341 5.39999 41.4674 6.09999 42.8008 7.5C44.2008 8.83333 44.9008 10.4667 44.9008 12.4C44.9008 14.2667 44.2008 15.9 42.8008 17.3C41.4674 18.7 39.8341 19.4 37.9008 19.4C31.9675 19.4 27.2674 20.4333 23.8008 22.5C20.3341 24.5667 17.8341 28.0667 16.3008 33C14.8341 37.9333 14.1008 44.6667 14.1008 53.2V130.2C14.1008 142.267 15.8341 150.567 19.3008 155.1C22.8341 159.7 29.0341 162 37.9008 162C39.8341 162 41.4674 162.667 42.8008 164C44.2008 165.4 44.9008 167.067 44.9008 169C44.9008 170.867 44.2008 172.5 42.8008 173.9C41.4674 175.3 39.8341 176 37.9008 176ZM269.004 141C258.804 141 251.204 138.5 246.204 133.5C241.271 128.433 238.804 120.8 238.804 110.6V8.59999C238.804 2.99999 241.604 0.199989 247.204 0.199989C252.804 0.199989 255.604 2.99999 255.604 8.59999V110.6C255.604 116 256.471 119.633 258.204 121.5C260.004 123.3 263.604 124.2 269.004 124.2C274.737 124.2 277.604 127 277.604 132.6C277.804 138.2 274.937 141 269.004 141ZM367.852 141C354.586 141 344.719 137.8 338.252 131.4C331.852 125 328.652 115.2 328.652 102V78.8C328.652 65.4 331.852 55.5333 338.252 49.2C344.719 42.8 354.586 39.6 367.852 39.6H384.252C397.586 39.6 407.452 42.8 413.852 49.2C420.252 55.6 423.452 65.4667 423.452 78.8V101.8C423.452 115.067 420.252 124.933 413.852 131.4C407.452 137.8 397.586 141 384.252 141H367.852ZM345.452 102C345.452 110.6 347.019 116.467 350.152 119.6C353.286 122.667 359.186 124.2 367.852 124.2H384.252C392.986 124.2 398.886 122.633 401.952 119.5C405.086 116.367 406.652 110.467 406.652 101.8V78.8C406.652 70.0667 405.086 64.1667 401.952 61.1C398.886 57.9667 392.986 56.4 384.252 56.4H367.852C362.052 56.4 357.519 57.0667 354.252 58.4C351.052 59.6667 348.786 61.9333 347.452 65.2C346.119 68.4 345.452 72.9333 345.452 78.8V102ZM509.504 141C505.104 141 502.171 138.733 500.704 134.2L472.904 50.6C471.171 45.5333 472.971 42.0667 478.304 40.2C483.571 38.4 487.104 40.2 488.904 45.6L511.504 112.9H510.204L531.504 45.6C532.971 41.2 536.171 39 541.104 39C545.771 39 548.771 41.3333 550.104 46L570.004 112.2H569.204L592.304 45.4C594.237 40 597.837 38.2667 603.104 40.2C608.371 42.0667 610.037 45.6667 608.104 51L577.704 134.2C576.037 138.733 572.904 141 568.304 141C563.571 141 560.504 138.667 559.104 134L538.504 65.2H540.704L518.304 134.2C517.637 136.4 516.537 138.1 515.004 139.3C513.471 140.433 511.637 141 509.504 141ZM206.741 297.2V302C206.741 310.6 208.308 316.467 211.441 319.6C214.575 322.667 220.475 324.2 229.141 324.2H245.541C252.341 324.2 257.375 323.567 260.641 322.3C263.908 321.033 266.075 318.8 267.141 315.6C267.875 313.067 268.875 311.133 270.141 309.8C271.475 308.467 273.475 307.8 276.141 307.8C278.941 307.8 281.075 308.533 282.541 310C284.008 311.467 284.475 313.6 283.941 316.4C282.475 324.667 278.541 330.833 272.141 334.9C265.741 338.967 256.875 341 245.541 341H229.141C215.875 341 206.008 337.8 199.541 331.4C193.141 325 189.941 315.2 189.941 302V278.8C189.941 265.267 193.141 255.333 199.541 249C206.008 242.6 215.875 239.467 229.141 239.6H245.541C258.875 239.6 268.741 242.8 275.141 249.2C281.541 255.533 284.741 265.4 284.741 278.8V288.8C284.741 294.4 281.941 297.2 276.341 297.2H206.741ZM229.141 256.4C220.475 256.267 214.575 257.767 211.441 260.9C208.308 264.033 206.741 270 206.741 278.8V280.4H267.941V278.8C267.941 270.067 266.375 264.167 263.241 261.1C260.175 257.967 254.275 256.4 245.541 256.4H229.141ZM387.193 334.8C386.326 336.867 385.093 338.433 383.493 339.5C381.96 340.5 379.993 341 377.593 341C373.393 341 370.393 338.8 368.593 334.4L334.593 251.6C332.26 246.267 333.726 242.6 338.993 240.6C343.993 238.267 347.66 239.733 349.993 245L381.793 322.6H373.993L408.793 244.6C409.926 242.4 411.46 240.9 413.393 240.1C415.393 239.3 417.593 239.467 419.993 240.6C424.926 242.933 426.26 246.667 423.993 251.8L387.193 334.8ZM471.066 376C469.2 376 467.566 375.3 466.166 373.9C464.766 372.5 464.066 370.867 464.066 369C464.066 367.067 464.766 365.4 466.166 364C467.566 362.667 469.2 362 471.066 362C480 362 486.2 359.7 489.666 355.1C493.133 350.567 494.866 342.267 494.866 330.2V253.2C494.866 244.667 494.1 237.933 492.566 233C491.1 228.067 488.633 224.567 485.166 222.5C481.7 220.433 477 219.4 471.066 219.4C469.2 219.4 467.566 218.7 466.166 217.3C464.766 215.9 464.066 214.267 464.066 212.4C464.066 210.467 464.766 208.833 466.166 207.5C467.566 206.1 469.2 205.4 471.066 205.4C484.2 205.4 493.766 209.267 499.766 217C505.833 224.733 508.866 236.8 508.866 253.2V330.2C508.866 345.867 505.833 357.4 499.766 364.8C493.766 372.267 484.2 376 471.066 376ZM567.437 366.4C565.037 366.4 563.17 365.8 561.837 364.6C560.57 363.4 560.103 361.667 560.437 359.4L566.037 327.5C566.237 322.633 568.903 320.2 574.037 320.2H578.837C583.903 320.2 586.437 322.8 586.437 328V333C586.437 334.133 586.237 335.267 585.837 336.4C585.503 337.467 585.07 338.533 584.537 339.6L574.037 362C572.437 364.933 570.237 366.4 567.437 366.4ZM574.037 275C568.703 275 566.037 272.333 566.037 267V262C566.037 256.8 568.703 254.2 574.037 254.2H578.837C583.903 254.2 586.437 256.8 586.437 262V267C586.437 272.333 583.903 275 578.837 275H574.037Z" fill="black"/>
<path d="M106.071 141C100.471 141 97.6711 138.2 97.6711 132.6V13.8C97.6711 8.19999 100.471 5.39999 106.071 5.39999H179.671C182.271 5.39999 184.304 6.16666 185.771 7.69999C187.304 9.16666 188.071 11.2 188.071 13.8C188.071 19.4 185.271 22.2 179.671 22.2H114.471V64.2H154.671C160.271 64.2 163.071 67 163.071 72.6C163.071 78.2 160.271 81 154.671 81H114.471V132.6C114.471 138.2 111.671 141 106.071 141ZM29.0008 341C23.4008 341 20.6008 338.2 20.6008 332.6V213.8C20.6008 208.2 23.4008 205.4 29.0008 205.4H77.2008C94.6008 205.4 107.401 209.533 115.601 217.8C123.867 226 128.001 238.8 128.001 256.2V290.2C128.001 307.6 123.901 320.433 115.701 328.7C107.567 336.9 94.7341 341 77.2008 341H29.0008ZM37.4008 324.2H77.2008C85.7341 324.2 92.4675 323.167 97.4008 321.1C102.401 318.967 105.934 315.433 108.001 310.5C110.134 305.5 111.201 298.733 111.201 290.2V256.2C111.201 247.733 110.134 241.033 108.001 236.1C105.934 231.1 102.401 227.533 97.4008 225.4C92.4675 223.267 85.7341 222.2 77.2008 222.2H37.4008V324.2Z" fill="#3200FF"/>
</svg>
