<svg width="197" height="122" viewBox="0 0 197 122" fill="none" xmlns="http://www.w3.org/2000/svg">
<path d="M12.6483 57.2C8.46692 57.2 5.40559 56.0053 3.46425 53.616C1.52292 51.248 0.552253 47.5573 0.552253 42.544V17.904C0.552253 12.656 1.52292 8.79467 3.46425 6.32C5.40559 3.84533 8.46692 2.608 12.6483 2.608C13.2669 2.608 13.7896 2.832 14.2163 3.28C14.6643 3.70667 14.8883 4.22933 14.8883 4.848C14.8883 5.44533 14.6643 5.968 14.2163 6.416C13.7896 6.864 13.2669 7.088 12.6483 7.088C10.7496 7.088 9.24559 7.41866 8.13625 8.08C7.02692 8.74133 6.22692 9.86133 5.73625 11.44C5.26692 13.0187 5.03225 15.1733 5.03225 17.904V42.544C5.03225 46.4053 5.58692 49.0613 6.69625 50.512C7.82692 51.984 9.81092 52.72 12.6483 52.72C13.2669 52.72 13.7896 52.9333 14.2163 53.36C14.6643 53.808 14.8883 54.3413 14.8883 54.96C14.8883 55.5573 14.6643 56.08 14.2163 56.528C13.7896 56.976 13.2669 57.2 12.6483 57.2ZM34.4628 46C32.6708 46 31.7748 45.104 31.7748 43.312V5.296C31.7748 3.504 32.6708 2.608 34.4628 2.608H58.0148C58.8468 2.608 59.4974 2.85333 59.9668 3.344C60.4574 3.81333 60.7028 4.464 60.7028 5.296C60.7028 7.088 59.8068 7.984 58.0148 7.984H37.1508V21.424H50.0148C51.8068 21.424 52.7028 22.32 52.7028 24.112C52.7028 25.904 51.8068 26.8 50.0148 26.8H37.1508V43.312C37.1508 45.104 36.2548 46 34.4628 46ZM86.6013 46C83.3373 46 80.9053 45.2 79.3053 43.6C77.7266 41.9787 76.9373 39.536 76.9373 36.272V3.632C76.9373 1.84 77.8333 0.943996 79.6253 0.943996C81.4173 0.943996 82.3133 1.84 82.3133 3.632V36.272C82.3133 38 82.5906 39.1627 83.1453 39.76C83.7213 40.336 84.8733 40.624 86.6013 40.624C88.4359 40.624 89.3533 41.52 89.3533 43.312C89.4173 45.104 88.4999 46 86.6013 46ZM118.233 46C113.987 46 110.83 44.976 108.761 42.928C106.713 40.88 105.689 37.744 105.689 33.52V26.096C105.689 21.808 106.713 18.6507 108.761 16.624C110.83 14.576 113.987 13.552 118.233 13.552H123.481C127.747 13.552 130.905 14.576 132.953 16.624C135.001 18.672 136.025 21.8293 136.025 26.096V33.456C136.025 37.7013 135.001 40.8587 132.953 42.928C130.905 44.976 127.747 46 123.481 46H118.233ZM111.065 33.52C111.065 36.272 111.566 38.1493 112.569 39.152C113.571 40.1333 115.459 40.624 118.233 40.624H123.481C126.275 40.624 128.163 40.1227 129.145 39.12C130.147 38.1173 130.649 36.2293 130.649 33.456V26.096C130.649 23.3013 130.147 21.4133 129.145 20.432C128.163 19.4293 126.275 18.928 123.481 18.928H118.233C116.377 18.928 114.926 19.1413 113.881 19.568C112.857 19.9733 112.131 20.6987 111.705 21.744C111.278 22.768 111.065 24.2187 111.065 26.096V33.52ZM163.561 46C162.153 46 161.215 45.2747 160.745 43.824L151.849 17.072C151.295 15.4507 151.871 14.3413 153.577 13.744C155.263 13.168 156.393 13.744 156.969 15.472L164.201 37.008H163.785L170.601 15.472C171.071 14.064 172.095 13.36 173.673 13.36C175.167 13.36 176.127 14.1067 176.553 15.6L182.921 36.784H182.665L190.057 15.408C190.676 13.68 191.828 13.1253 193.513 13.744C195.199 14.3413 195.732 15.4933 195.113 17.2L185.385 43.824C184.852 45.2747 183.849 46 182.377 46C180.863 46 179.881 45.2533 179.433 43.76L172.841 21.744H173.545L166.377 43.824C166.164 44.528 165.812 45.072 165.321 45.456C164.831 45.8187 164.244 46 163.561 46ZM9.80025 110C8.00825 110 7.11225 109.104 7.11225 107.312V69.296C7.11225 67.504 8.00825 66.608 9.80025 66.608H25.2243C30.7923 66.608 34.8883 67.9307 37.5123 70.576C40.1576 73.2 41.4803 77.296 41.4803 82.864V93.744C41.4803 99.312 40.1683 103.419 37.5443 106.064C34.9416 108.688 30.8349 110 25.2243 110H9.80025ZM12.4883 104.624H25.2243C27.9549 104.624 30.1096 104.293 31.6883 103.632C33.2883 102.949 34.4189 101.819 35.0803 100.24C35.7629 98.64 36.1043 96.4747 36.1043 93.744V82.864C36.1043 80.1547 35.7629 78.0107 35.0803 76.432C34.4189 74.832 33.2883 73.6907 31.6883 73.008C30.1096 72.3253 27.9549 71.984 25.2243 71.984H12.4883V104.624ZM66.6773 95.984V97.52C66.6773 100.272 67.1786 102.149 68.1813 103.152C69.1839 104.133 71.0719 104.624 73.8453 104.624H79.0933C81.2693 104.624 82.8799 104.421 83.9253 104.016C84.9706 103.611 85.6639 102.896 86.0053 101.872C86.2399 101.061 86.5599 100.443 86.9653 100.016C87.3919 99.5893 88.0319 99.376 88.8853 99.376C89.7813 99.376 90.4639 99.6107 90.9333 100.08C91.4026 100.549 91.5519 101.232 91.3813 102.128C90.9119 104.773 89.6533 106.747 87.6053 108.048C85.5573 109.349 82.7199 110 79.0933 110H73.8453C69.5999 110 66.4426 108.976 64.3733 106.928C62.3253 104.88 61.3013 101.744 61.3013 97.52V90.096C61.3013 85.7653 62.3253 82.5867 64.3733 80.56C66.4426 78.512 69.5999 77.5093 73.8453 77.552H79.0933C83.3599 77.552 86.5173 78.576 88.5653 80.624C90.6133 82.6507 91.6373 85.808 91.6373 90.096V93.296C91.6373 95.088 90.7413 95.984 88.9493 95.984H66.6773ZM73.8453 82.928C71.0719 82.8853 69.1839 83.3653 68.1813 84.368C67.1786 85.3707 66.6773 87.28 66.6773 90.096V90.608H86.2613V90.096C86.2613 87.3013 85.7599 85.4133 84.7573 84.432C83.7759 83.4293 81.8879 82.928 79.0933 82.928H73.8453ZM124.422 108.016C124.144 108.677 123.75 109.179 123.238 109.52C122.747 109.84 122.118 110 121.35 110C120.006 110 119.046 109.296 118.47 107.888L107.59 81.392C106.843 79.6853 107.312 78.512 108.998 77.872C110.598 77.1253 111.771 77.5947 112.518 79.28L122.694 104.112H120.198L131.334 79.152C131.696 78.448 132.187 77.968 132.806 77.712C133.446 77.456 134.15 77.5093 134.918 77.872C136.496 78.6187 136.923 79.8133 136.198 81.456L124.422 108.016ZM151.261 121.2C150.664 121.2 150.141 120.976 149.693 120.528C149.245 120.08 149.021 119.557 149.021 118.96C149.021 118.341 149.245 117.808 149.693 117.36C150.141 116.933 150.664 116.72 151.261 116.72C154.12 116.72 156.104 115.984 157.213 114.512C158.323 113.061 158.877 110.405 158.877 106.544V81.904C158.877 79.1733 158.632 77.0187 158.141 75.44C157.672 73.8613 156.883 72.7413 155.773 72.08C154.664 71.4187 153.16 71.088 151.261 71.088C150.664 71.088 150.141 70.864 149.693 70.416C149.245 69.968 149.021 69.4453 149.021 68.848C149.021 68.2293 149.245 67.7067 149.693 67.28C150.141 66.832 150.664 66.608 151.261 66.608C155.464 66.608 158.525 67.8453 160.445 70.32C162.387 72.7947 163.357 76.656 163.357 81.904V106.544C163.357 111.557 162.387 115.248 160.445 117.616C158.525 120.005 155.464 121.2 151.261 121.2ZM182.1 118.128C181.332 118.128 180.734 117.936 180.308 117.552C179.902 117.168 179.753 116.613 179.86 115.888L181.652 105.68C181.716 104.123 182.569 103.344 184.212 103.344H185.748C187.369 103.344 188.18 104.176 188.18 105.84V107.44C188.18 107.803 188.116 108.165 187.988 108.528C187.881 108.869 187.742 109.211 187.572 109.552L184.212 116.72C183.7 117.659 182.996 118.128 182.1 118.128ZM184.212 88.88C182.505 88.88 181.652 88.0267 181.652 86.32V84.72C181.652 83.056 182.505 82.224 184.212 82.224H185.748C187.369 82.224 188.18 83.056 188.18 84.72V86.32C188.18 88.0267 187.369 88.88 185.748 88.88H184.212Z" fill="white"/>
</svg>
