<svg width="823" height="823" viewBox="0 0 823 823" fill="none" xmlns="http://www.w3.org/2000/svg">
<path opacity="0.63" d="M563.1 81.9C476 24.5 353.6 36.1 276.6 121.3C234.5 167.9 217.4 232 173.7 277.6C124.5 329 65.7001 378.9 43.4001 448.9C19.7001 523.3 40.5001 608.6 93.5001 665.5C158 734.7 252.8 713.9 342.4 712.8C709.3 708.2 982 463.3 635 161.4C606 136 591.9 100.8 563.1 81.9Z" fill="#CCE9FF"/>
<path d="M727.5 121.6H108.5C96.1 121.6 86 131.6 86 144V570.3H750V144C750 131.6 739.9 121.6 727.5 121.6Z" fill="#09456C"/>
<path d="M726.7 131H109.3C101.6 131 95.4 137.2 95.4 144.9V564H740.6V144.9C740.6 137.2 734.4 131 726.7 131Z" fill="#0E538C"/>
<path d="M118.6 162H717.4V549.1H118.6V162Z" fill="#09456C"/>
<path d="M421.4 148.4C421.4 150.3 419.9 151.8 418 151.8C416.1 151.8 414.6 150.3 414.6 148.4C414.6 146.5 416.1 145 418 145C419.9 145.1 421.4 146.6 421.4 148.4Z" fill="#F6F6F6"/>
<path d="M193.7 183.4H253.7V194H193.7V183.4Z" fill="#026F6E"/>
<path d="M139.5 183.4H164.2V194H139.5V183.4ZM139.5 202.8H164.2V213.4H139.5V202.8ZM139.5 225.8H164.2V236.4H139.5V225.8ZM139.5 248.7H164.2V259.3H139.5V248.7ZM139.5 271.7H164.2V282.3H139.5V271.7ZM139.5 294.6H164.2V305.2H139.5V294.6ZM266.1 183.4H467.4V194H266.1V183.4Z" fill="#CCE9FF"/>
<path d="M214.9 202.8H274.9V213.4H214.9V202.8Z" fill="#026F6E"/>
<path d="M287.3 202.8H488.6V213.4H287.3V202.8Z" fill="#CCE9FF"/>
<path d="M250.3 225.8H310.3V236.4H250.3V225.8Z" fill="#026F6E"/>
<path d="M322.7 225.8H524V236.4H322.7V225.8Z" fill="#CCE9FF"/>
<path d="M285.6 248.7H345.6V259.3H285.6V248.7Z" fill="#026F6E"/>
<path d="M358 248.7H559.3V259.3H358V248.7Z" fill="#CCE9FF"/>
<path d="M250.3 271.7H310.3V282.3H250.3V271.7Z" fill="#026F6E"/>
<path d="M322.7 271.7H630V282.3H322.7V271.7Z" fill="#CCE9FF"/>
<path d="M214.9 294.6H274.9V305.2H214.9V294.6Z" fill="#026F6E"/>
<path d="M287.3 294.6H418V305.2H287.3V294.6Z" fill="#CCE9FF"/>
<path opacity="0.4" d="M193.7 324.7H253.7V335.3H193.7V324.7Z" fill="#026F6E"/>
<path opacity="0.4" d="M139.5 324.7H164.2V335.3H139.5V324.7ZM139.5 344.1H164.2V354.7H139.5V344.1ZM139.5 367.1H164.2V377.7H139.5V367.1ZM139.5 390H164.2V400.6H139.5V390ZM139.5 413H164.2V423.6H139.5V413ZM139.5 435.9H164.2V446.5H139.5V435.9ZM266.1 324.7H467.4V335.3H266.1V324.7Z" fill="#CCE9FF"/>
<path opacity="0.4" d="M214.9 344.1H274.9V354.7H214.9V344.1Z" fill="#026F6E"/>
<path opacity="0.4" d="M287.3 344.1H488.6V354.7H287.3V344.1Z" fill="#CCE9FF"/>
<path opacity="0.4" d="M250.3 367.1H310.3V377.7H250.3V367.1Z" fill="#026F6E"/>
<path opacity="0.4" d="M322.7 367.1H524V377.7H322.7V367.1Z" fill="#CCE9FF"/>
<path opacity="0.4" d="M193.7 465.9H253.7V476.5H193.7V465.9Z" fill="#026F6E"/>
<path opacity="0.4" d="M139.5 465.9H164.2V476.5H139.5V465.9ZM139.5 485.4H164.2V496H139.5V485.4ZM139.5 508.3H164.2V518.9H139.5V508.3ZM266.1 465.9H467.4V476.5H266.1V465.9Z" fill="#CCE9FF"/>
<path opacity="0.4" d="M214.9 485.4H274.9V496H214.9V485.4Z" fill="#026F6E"/>
<path opacity="0.4" d="M287.3 485.4H488.6V496H287.3V485.4Z" fill="#CCE9FF"/>
<path opacity="0.4" d="M250.3 508.3H310.3V518.9H250.3V508.3Z" fill="#026F6E"/>
<path opacity="0.4" d="M322.7 508.3H524V518.9H322.7V508.3Z" fill="#CCE9FF"/>
<path opacity="0.4" d="M285.6 390H345.6V400.6H285.6V390Z" fill="#026F6E"/>
<path opacity="0.4" d="M358 390H665.3V400.6H358V390Z" fill="#CCE9FF"/>
<path opacity="0.4" d="M250.3 413H310.3V423.6H250.3V413Z" fill="#026F6E"/>
<path opacity="0.4" d="M322.7 413H524V423.6H322.7V413Z" fill="#CCE9FF"/>
<path opacity="0.4" d="M214.9 435.9H274.9V446.5H214.9V435.9Z" fill="#026F6E"/>
<path opacity="0.4" d="M287.3 435.9H488.6V446.5H287.3V435.9Z" fill="#CCE9FF"/>
<path d="M794.1 562.7H41.9C37.6 562.7 34 566.2 34 570.6V580.8C34 585.1 37.5 588.7 41.9 588.7H794.2C798.5 588.7 802.1 585.2 802.1 580.8V570.6C802 566.2 798.5 562.7 794.1 562.7Z" fill="#D3D3D3"/>
<path d="M482.5 574H353.5C351.8 574 350.4 575.4 350.4 577.1C350.4 578.8 351.8 580.2 353.5 580.2H482.6C484.3 580.2 485.7 578.8 485.7 577.1C485.6 575.4 484.2 574 482.5 574Z" fill="#F7F7F7"/>
<path d="M588.6 675L588.5 691.1C588.5 691.1 590.5 701.4 592.2 712.4C593.8 723.4 595.1 735.1 593.4 737.8C590.1 743.2 583.6 737.8 582.5 732.4C581.4 727 579.8 693.3 579.8 693.3L578.7 671.6L588.6 675ZM605 672.8L602.5 687.3C602.5 687.3 597.6 726.9 600.3 732.9C603 738.9 611.7 736.2 611.2 728C610.7 719.9 612.8 691.1 612.8 691.1L617.7 673.7L605 672.8Z" fill="#09456C"/>
<path d="M598.3 496.3L597.1 514.1L643.1 536.3C651.4 540.8 655.4 550.5 652.7 559.5L620.9 677.8L605.1 672.8L619 564C620 557.3 615.4 551.1 608.7 550L592.3 547.4L574.9 529.6L595.1 547.7C600 552.1 602.4 558.6 601.5 565.1L588.6 675L574.3 678.6L567.9 570.5C567.4 563.6 562.8 557.8 556.3 555.7L528 546.7C523.5 544 520.7 539.1 520.5 533.8L521.7 495.7L598.3 496.3Z" fill="#09456C"/>
<path d="M518.7 536.2L526.3 388.4C526.3 388.4 557.7 386.5 567.1 386.5C572.2 386.5 580.9 388.9 587.8 391.1C594.3 393.2 599.6 393 602.8 399L654.3 497.8L622.6 500.8L612 488.8L617.4 480.7L598.1 435.3L601.9 517.8L518.7 536.2Z" fill="#026F6E"/>
<path opacity="0.08" d="M598.8 417.3L633 479L622.4 491.5C622.4 491.5 618.1 492.4 614 491L612.1 488.8L617.5 480.7L598.2 435.3L598.8 417.3Z" fill="#0F0F0F"/>
<path d="M568.4 431.2C558 431.2 539 404.1 539 393.7C539 391.6 539.4 389.6 540 387.7C549.7 387.2 561.8 386.6 567.1 386.6C569.4 386.6 572.4 387.1 575.7 387.8C576.3 389.7 576.7 391.6 576.7 393.7C576.6 404.1 578.8 431.2 568.4 431.2Z" fill="white"/>
<path opacity="0.08" d="M522.5 414L518.7 537.1L569.5 524.9L522.5 414Z" fill="#0F0F0F"/>
<path d="M570.2 371.4C569.3 373.2 563.1 397.4 563.1 397.4C563.1 397.4 560.9 401.4 555.6 400.9C550.3 400.5 548.1 393 548.1 393L557.4 362.6L570.2 371.4Z" fill="#FCD2B1"/>
<path d="M537.6 356.5C537.6 373.2 555.3 391.7 572 391.7C588.7 391.7 598 373.2 598 356.5C598 339.8 584.5 326.3 567.8 326.3C551.1 326.2 537.6 339.8 537.6 356.5Z" fill="#FFBCC6"/>
<path d="M573.959 392.478C592.492 389.457 605.066 371.984 602.045 353.451C599.024 334.918 581.551 322.343 563.018 325.364C544.485 328.385 531.91 345.859 534.931 364.392C537.952 382.925 555.426 395.5 573.959 392.478Z" fill="#FFE3CA"/>
<path d="M562.1 522C563.4 521.6 574.6 516.1 582.5 516.1C590.4 516.1 600.1 524.5 600.1 524.5C600.1 524.5 601.4 528.9 596.1 528C590.8 527.1 596.8 531.3 596.8 531.3C596.8 531.3 596.5 531.5 590.3 532.4C584.1 533.3 560.1 532 560.1 532L562.1 522Z" fill="#FFE3CA"/>
<path d="M526.3 388.5L522 485.7L562 521.9L560.1 532.1L503.8 502C498.4 499.1 495.3 493.1 496.1 487L506.4 412.6C507.2 403.3 512.9 395.1 521.2 391L526.3 388.5ZM558 540.4H659.8V532.9H558C555.9 532.9 554.3 534.6 554.3 536.6C554.2 538.7 555.9 540.4 558 540.4Z" fill="#026F6E"/>
<path d="M585.9 540.4H684.1C688.4 540.4 692.2 537.5 693.4 533.3L710.7 468C712.3 461.9 707.7 456 701.4 456H615.7C611.4 456 607.6 458.9 606.4 463.1L585.9 540.4Z" fill="#026F6E"/>
<path opacity="0.22" d="M585.9 540.4H684.1C688.4 540.4 692.2 537.5 693.4 533.3L710.7 468C712.3 461.9 707.7 456 701.4 456H615.7C611.4 456 607.6 458.9 606.4 463.1L585.9 540.4Z" fill="white"/>
<path d="M643.7 504C642.6 508.3 645.3 511.7 649.7 511.7C654.1 511.7 658.5 508.2 659.6 504C660.7 499.7 658 496.3 653.6 496.3C649.2 496.2 644.8 499.7 643.7 504Z" fill="white"/>
<path d="M568.5 324.9C586 324.9 600.3 338.1 602.3 355C596.4 359.4 588.7 361.3 581.4 360.1C572.8 358.6 565.1 352.7 561.5 344.8C561.8 348.6 562 352.4 561.4 356.1C560.8 359.8 559.2 363.5 556.2 365.9C556 363.3 555.7 360.5 554.4 358.2C553 355.9 550.1 354.3 547.7 355.3C545.9 356 544.8 357.8 544.5 359.7C544.2 361.6 544.7 363.5 545.4 365.3C546.5 368.1 548.1 370.7 550.1 372.8C546.1 373.4 541.8 373.9 537.8 373.5C535.7 369 534.4 364.1 534.4 358.8C534.4 340.1 549.7 324.9 568.5 324.9Z" fill="#2A94F4"/>
<path d="M539.2 364.5C539.2 370.2 543.8 374.8 549.5 374.8C555.2 374.8 559.8 370.2 559.8 364.5C559.8 358.8 555.2 354.2 549.5 354.2C543.9 354.2 539.2 358.8 539.2 364.5ZM605 672.8L603.2 683.7L614 687.1L617 676.4L605 672.8ZM588.5 687.1L579.5 688.8L579 677.4L588.6 675L588.5 687.1Z" fill="#FFE3CA"/>
<path d="M549.5 340.6C557.895 340.6 564.7 333.795 564.7 325.4C564.7 317.005 557.895 310.2 549.5 310.2C541.105 310.2 534.3 317.005 534.3 325.4C534.3 333.795 541.105 340.6 549.5 340.6Z" fill="#2A94F4"/>
</svg>
